<svg width="18" height="13" viewBox="0 0 18 13" fill="none" xmlns="http://www.w3.org/2000/svg">
<path d="M18 2.53872C18 2.83053 17.8916 3.07856 17.6748 3.28283L9.2671 11.2054L7.68774 12.6936C7.47097 12.8979 7.20774 13 6.89806 13C6.58839 13 6.32516 12.8979 6.10839 12.6936L4.52903 11.2054L0.325161 7.24411C0.108387 7.03984 0 6.79181 0 6.5C0 6.20819 0.108387 5.96016 0.325161 5.75589L1.90452 4.26768C2.12129 4.06341 2.38452 3.96128 2.69419 3.96128C3.00387 3.96128 3.2671 4.06341 3.48387 4.26768L6.89806 7.49579L14.5161 0.306397C14.7329 0.102132 14.9961 0 15.3058 0C15.6155 0 15.8787 0.102132 16.0955 0.306397L17.6748 1.79461C17.8916 1.99888 18 2.24691 18 2.53872Z" fill="white"/>
</svg>
