<svg width="25" height="21" viewBox="0 0 25 21" fill="none" xmlns="http://www.w3.org/2000/svg">
<path d="M25 1.78571C25 2.69231 24.2582 3.43407 23.3517 3.43407H8.21429C7.30769 3.43407 6.56593 2.69231 6.56593 1.78571C6.56593 0.879121 7.30769 0.137363 8.21429 0.137363H23.3517C24.2582 0.137363 25 0.879121 25 1.78571ZM8.21429 11.9505H16.8132C17.7198 11.9505 18.4615 11.2088 18.4615 10.3022C18.4615 9.3956 17.7198 8.65385 16.8132 8.65385H8.21429C7.30769 8.65385 6.56593 9.3956 6.56593 10.3022C6.56593 11.2088 7.30769 11.9505 8.21429 11.9505ZM20.3571 17.1703H8.21429C7.30769 17.1703 6.56593 17.9121 6.56593 18.8187C6.56593 19.7253 7.30769 20.467 8.21429 20.467H20.3571C21.2637 20.467 22.0055 19.7253 22.0055 18.8187C22.0055 17.9121 21.2912 17.1703 20.3571 17.1703ZM1.81319 0C1.34615 0 0.879121 0.192308 0.549451 0.521978C0.21978 0.851648 0 1.31868 0 1.78571C0 2.25275 0.192308 2.71978 0.521978 3.04945C0.851648 3.37912 1.31868 3.57143 1.78571 3.57143C2.25275 3.57143 2.71978 3.37912 3.04945 3.04945C3.37912 2.71978 3.57143 2.25275 3.57143 1.78571C3.57143 1.31868 3.37912 0.851648 3.04945 0.521978C2.74725 0.192308 2.28022 0 1.81319 0ZM1.81319 8.51648C1.34615 8.51648 0.879121 8.70879 0.549451 9.03846C0.21978 9.36813 0 9.83516 0 10.3022C0 10.7692 0.192308 11.2363 0.521978 11.5659C0.851648 11.8956 1.31868 12.0879 1.78571 12.0879C2.25275 12.0879 2.71978 11.8956 3.04945 11.5659C3.37912 11.2363 3.57143 10.7692 3.57143 10.3022C3.57143 9.83516 3.37912 9.36813 3.04945 9.03846C2.74725 8.70879 2.28022 8.51648 1.81319 8.51648ZM1.81319 17.033C1.34615 17.033 0.879121 17.2253 0.549451 17.5549C0.21978 17.8846 0 18.3516 0 18.8187C0 19.2857 0.192308 19.7527 0.521978 20.0824C0.851648 20.4121 1.31868 20.6044 1.78571 20.6044C2.25275 20.6044 2.71978 20.4121 3.04945 20.0824C3.37912 19.7527 3.57143 19.2857 3.57143 18.8187C3.57143 18.3516 3.37912 17.8846 3.04945 17.5549C2.74725 17.2253 2.28022 17.033 1.81319 17.033Z" fill="white"/>
</svg>
