<svg width="25" height="25" viewBox="0 0 25 25" fill="none" xmlns="http://www.w3.org/2000/svg">
<path d="M24.4719 0.249568C24.1392 0.0207845 23.7068 -0.0560061 23.3017 0.0412604L12.856 2.55749C12.2669 2.69964 11.8574 3.17847 11.8574 3.72582V8.32355H10.1613V6.03375C10.1613 5.54822 9.83776 5.10995 9.33955 4.92015C8.84046 4.72956 8.26412 4.82604 7.87609 5.1635L0.411738 11.6297C0.148807 11.8577 0 12.1719 0 12.5C0 12.828 0.148807 13.1422 0.411738 13.3702L7.87609 19.8364C8.13244 20.0585 8.46999 20.1758 8.81325 20.1758C8.99059 20.1758 9.16968 20.1443 9.33955 20.0798C9.83776 19.89 10.1613 19.4517 10.1613 18.9662V16.6763H11.8574V21.2741C11.8574 21.8214 12.2669 22.3003 12.856 22.4424L23.3017 24.9587C23.4171 24.9862 23.5348 25 23.6515 25C23.9452 25 24.234 24.9142 24.4719 24.7503C24.8051 24.5212 25 24.1664 25 23.7903V1.2096C25 0.833537 24.8051 0.478746 24.4719 0.249568ZM8.81281 14.257C8.06792 14.257 7.46436 14.7984 7.46436 15.4667V16.1164L3.2895 12.5L7.46436 8.88351V9.53324C7.46436 10.2015 8.06792 10.7429 8.81281 10.7429H15.8444V14.257L8.81281 14.257ZM22.3031 22.2128L14.5543 20.3463V16.6763H17.1928C17.9377 16.6763 18.5413 16.1349 18.5413 15.4667V9.53325C18.5413 8.86501 17.9377 8.32356 17.1928 8.32356H14.5543V4.65356L22.3031 2.78706V22.2128Z" fill="#525668"/>
</svg>
