<svg width="25" height="24" viewBox="0 0 25 24" fill="none" xmlns="http://www.w3.org/2000/svg">
<path d="M1.20968 6.70161H5.49194C6.16131 6.70161 6.70161 6.16126 6.70161 5.49194V1.20968C6.70161 0.540307 6.16131 0 5.49194 0H1.20968C0.540306 0 0 0.540307 0 1.20968V5.49194C0 6.16126 0.540306 6.70161 1.20968 6.70161ZM23.7903 2.13914H9.94401C9.27577 2.13914 8.73433 2.68098 8.73433 3.34881C8.73433 4.01665 9.27577 4.55849 9.94401 4.55849H23.7903C24.4582 4.55849 25 4.01665 25 3.34881C25 2.68098 24.4582 2.13914 23.7903 2.13914ZM0 13.879C0 14.5403 0.540306 15.0887 1.20968 15.0887H5.49194C6.16131 15.0887 6.70161 14.5403 6.70161 13.879V9.58867C6.70161 8.92737 6.16131 8.37899 5.49194 8.37899H1.20968C0.540306 8.37899 0 8.92737 0 9.58867V13.879ZM23.7903 10.5242H9.94401C9.27577 10.5242 8.73433 11.066 8.73433 11.7339C8.73433 12.4017 9.27577 12.9435 9.94401 12.9435H23.7903C24.4582 12.9435 25 12.4017 25 11.7339C25 11.066 24.4582 10.5242 23.7903 10.5242ZM0 22.258C0 22.9274 0.540306 23.4677 1.20968 23.4677H5.49194C6.16131 23.4677 6.70161 22.9274 6.70161 22.258V17.9758C6.70161 17.3064 6.16131 16.7661 5.49194 16.7661H1.20968C0.540306 16.7661 0 17.3064 0 17.9758V22.258ZM23.7903 18.9092H9.94401C9.27577 18.9092 8.73433 19.4511 8.73433 20.1189C8.73433 20.7867 9.27577 21.3286 9.94401 21.3286H23.7903C24.4582 21.3286 25 20.7867 25 20.1189C25 19.4511 24.4582 18.9092 23.7903 18.9092Z" fill="white"/>
</svg>
